<?xml version="1.0" encoding="utf-8" standalone="no"?>
<!DOCTYPE svg PUBLIC "-//W3C//DTD SVG 1.1//EN"
  "http://www.w3.org/Graphics/SVG/1.1/DTD/svg11.dtd">
<svg xmlns:xlink="http://www.w3.org/1999/xlink" width="489.6pt" height="266.4pt" viewBox="0 0 489.6 266.4" xmlns="http://www.w3.org/2000/svg" version="1.1">
 <metadata>
  <rdf:RDF xmlns:dc="http://purl.org/dc/elements/1.1/" xmlns:cc="http://creativecommons.org/ns#" xmlns:rdf="http://www.w3.org/1999/02/22-rdf-syntax-ns#">
   <cc:Work>
    <dc:type rdf:resource="http://purl.org/dc/dcmitype/StillImage"/>
    <dc:format>image/svg+xml</dc:format>
    <dc:creator>
     <cc:Agent>
      <dc:title>Matplotlib v3.11.2, https://matplotlib.org/</dc:title>
     </cc:Agent>
    </dc:creator>
   </cc:Work>
  </rdf:RDF>
 </metadata>
 <defs>
  <style type="text/css">*{stroke-linejoin: round; stroke-linecap: butt}</style>
 </defs>
 <g id="figure_1">
  <g id="patch_1">
   <path d="M 0 266.4 
L 489.6 266.4 
L 489.6 0 
L 0 0 
z
" style="fill: #ffffff"/>
  </g>
  <g id="axes_1">
   <g id="patch_2">
    <path d="M 28.765865 213.697796 
L 232.981791 213.697796 
L 232.981791 16.978599 
L 28.765865 16.978599 
z
" style="fill: #ffffff"/>
   </g>
   <g id="matplotlib.axis_1">
    <g id="xtick_1">
     <g id="line2d_1">
      <path d="M 38.048407 213.697796 
L 38.048407 16.978599 
" clip-path="url(#p9cd13b96df)" style="fill: none; stroke: #e1e0d9; stroke-width: 0.8; stroke-linecap: round"/>
     </g>
     <g id="line2d_2"/>
     <g id="text_1">
      <!-- 10³ -->
      <g style="fill: #52514e" transform="translate(29.68122 224.795452) scale(0.1 -0.1)">
       <defs>
        <path id="DejaVuSans-14" d="M 794 531 
L 1825 531 
L 1825 4091 
L 703 3866 
L 703 4441 
L 1819 4666 
L 2450 4666 
L 2450 531 
L 3481 531 
L 3481 0 
L 794 0 
L 794 531 
z
" transform="scale(0.015625)"/>
        <path id="DejaVuSans-13" d="M 2034 4250 
Q 1547 4250 1301 3770 
Q 1056 3291 1056 2328 
Q 1056 1369 1301 889 
Q 1547 409 2034 409 
Q 2525 409 2770 889 
Q 3016 1369 3016 2328 
Q 3016 3291 2770 3770 
Q 2525 4250 2034 4250 
z
M 2034 4750 
Q 2819 4750 3233 4129 
Q 3647 3509 3647 2328 
Q 3647 1150 3233 529 
Q 2819 -91 2034 -91 
Q 1250 -91 836 529 
Q 422 1150 422 2328 
Q 422 3509 836 4129 
Q 1250 4750 2034 4750 
z
" transform="scale(0.015625)"/>
        <path id="DejaVuSans-75" d="M 1638 3500 
Q 1925 3444 2083 3273 
Q 2241 3103 2241 2847 
Q 2241 2459 1944 2250 
Q 1647 2041 1094 2041 
Q 916 2041 720 2073 
Q 525 2106 306 2169 
L 306 2547 
Q 469 2463 655 2422 
Q 841 2381 1050 2381 
Q 1391 2381 1578 2504 
Q 1766 2628 1766 2847 
Q 1766 3078 1592 3197 
Q 1419 3316 1081 3316 
L 813 3316 
L 813 3653 
L 1106 3653 
Q 1400 3653 1551 3751 
Q 1703 3850 1703 4038 
Q 1703 4219 1547 4314 
Q 1391 4409 1094 4409 
Q 969 4409 809 4381 
Q 650 4353 397 4281 
L 397 4641 
Q 625 4694 825 4722 
Q 1025 4750 1197 4750 
Q 1647 4750 1911 4565 
Q 2175 4381 2175 4072 
Q 2175 3856 2034 3706 
Q 1894 3556 1638 3500 
z
" transform="scale(0.015625)"/>
       </defs>
       <use xlink:href="#DejaVuSans-14"/>
       <use xlink:href="#DejaVuSans-13" transform="translate(63.625 0)"/>
       <use xlink:href="#DejaVuSans-75" transform="translate(127.25 0)"/>
      </g>
     </g>
    </g>
    <g id="xtick_2">
     <g id="line2d_3">
      <path d="M 84.461118 213.697796 
L 84.461118 16.978599 
" clip-path="url(#p9cd13b96df)" style="fill: none; stroke: #e1e0d9; stroke-width: 0.8; stroke-linecap: round"/>
     </g>
     <g id="line2d_4"/>
     <g id="text_2">
      <!-- 10⁴ -->
      <g style="fill: #52514e" transform="translate(76.09393 224.795452) scale(0.1 -0.1)">
       <defs>
        <path id="DejaVuSans-b4f" d="M 1491 4319 
L 525 3009 
L 1491 3009 
L 1491 4319 
z
M 1422 4697 
L 1941 4697 
L 1941 3009 
L 2363 3009 
L 2363 2669 
L 1941 2669 
L 1941 2088 
L 1491 2088 
L 1491 2669 
L 197 2669 
L 197 3047 
L 1422 4697 
z
" transform="scale(0.015625)"/>
       </defs>
       <use xlink:href="#DejaVuSans-14"/>
       <use xlink:href="#DejaVuSans-13" transform="translate(63.625 0)"/>
       <use xlink:href="#DejaVuSans-b4f" transform="translate(127.25 0)"/>
      </g>
     </g>
    </g>
    <g id="xtick_3">
     <g id="line2d_5">
      <path d="M 130.873828 213.697796 
L 130.873828 16.978599 
" clip-path="url(#p9cd13b96df)" style="fill: none; stroke: #e1e0d9; stroke-width: 0.8; stroke-linecap: round"/>
     </g>
     <g id="line2d_6"/>
     <g id="text_3">
      <!-- 10⁵ -->
      <g style="fill: #52514e" transform="translate(122.506641 224.795452) scale(0.1 -0.1)">
       <defs>
        <path id="DejaVuSans-b50" d="M 444 4697 
L 2038 4697 
L 2038 4400 
L 816 4400 
L 816 3763 
Q 903 3791 994 3803 
Q 1081 3816 1169 3816 
Q 1672 3816 1966 3575 
Q 2259 3338 2259 2928 
Q 2259 2506 1956 2272 
Q 1656 2041 1106 2041 
Q 919 2041 722 2069 
Q 525 2097 319 2153 
L 319 2506 
Q 497 2422 691 2378 
Q 884 2338 1100 2338 
Q 1447 2338 1650 2497 
Q 1853 2656 1853 2928 
Q 1853 3200 1650 3359 
Q 1447 3519 1100 3519 
Q 938 3519 775 3487 
Q 613 3456 444 3391 
L 444 4697 
z
" transform="scale(0.015625)"/>
       </defs>
       <use xlink:href="#DejaVuSans-14"/>
       <use xlink:href="#DejaVuSans-13" transform="translate(63.625 0)"/>
       <use xlink:href="#DejaVuSans-b50" transform="translate(127.25 0)"/>
      </g>
     </g>
    </g>
    <g id="xtick_4">
     <g id="line2d_7">
      <path d="M 177.286539 213.697796 
L 177.286539 16.978599 
" clip-path="url(#p9cd13b96df)" style="fill: none; stroke: #e1e0d9; stroke-width: 0.8; stroke-linecap: round"/>
     </g>
     <g id="line2d_8"/>
     <g id="text_4">
      <!-- 10⁶ -->
      <g style="fill: #52514e" transform="translate(168.919351 224.795452) scale(0.1 -0.1)">
       <defs>
        <path id="DejaVuSans-b51" d="M 1359 3541 
Q 1084 3541 925 3378 
Q 766 3213 766 2928 
Q 766 2647 925 2484 
Q 1084 2319 1359 2319 
Q 1631 2319 1791 2484 
Q 1950 2647 1950 2928 
Q 1950 3213 1791 3378 
Q 1631 3541 1359 3541 
z
M 2166 4647 
L 2166 4325 
Q 2013 4388 1856 4419 
Q 1700 4453 1547 4453 
Q 1147 4453 934 4219 
Q 722 3981 691 3503 
Q 809 3656 988 3738 
Q 1169 3819 1381 3819 
Q 1834 3819 2097 3581 
Q 2359 3341 2359 2928 
Q 2359 2531 2084 2284 
Q 1813 2041 1359 2041 
Q 838 2041 563 2387 
Q 288 2734 288 3397 
Q 288 4016 625 4381 
Q 963 4750 1531 4750 
Q 1684 4750 1841 4725 
Q 1997 4697 2166 4647 
z
" transform="scale(0.015625)"/>
       </defs>
       <use xlink:href="#DejaVuSans-14"/>
       <use xlink:href="#DejaVuSans-13" transform="translate(63.625 0)"/>
       <use xlink:href="#DejaVuSans-b51" transform="translate(127.25 0)"/>
      </g>
     </g>
    </g>
    <g id="xtick_5">
     <g id="line2d_9">
      <path d="M 223.699249 213.697796 
L 223.699249 16.978599 
" clip-path="url(#p9cd13b96df)" style="fill: none; stroke: #e1e0d9; stroke-width: 0.8; stroke-linecap: round"/>
     </g>
     <g id="line2d_10"/>
     <g id="text_5">
      <!-- 10⁷ -->
      <g style="fill: #52514e" transform="translate(215.332062 224.795452) scale(0.1 -0.1)">
       <defs>
        <path id="DejaVuSans-b52" d="M 338 4697 
L 2266 4697 
L 2266 4547 
L 1178 2088 
L 753 2088 
L 1778 4400 
L 338 4400 
L 338 4697 
z
" transform="scale(0.015625)"/>
       </defs>
       <use xlink:href="#DejaVuSans-14"/>
       <use xlink:href="#DejaVuSans-13" transform="translate(63.625 0)"/>
       <use xlink:href="#DejaVuSans-b52" transform="translate(127.25 0)"/>
      </g>
     </g>
    </g>
    <g id="text_6">
     <!-- Guide's ratio of normal force to drag -->
     <g style="fill: #52514e" transform="translate(39.732422 238.796233) scale(0.1 -0.1)">
      <defs>
       <path id="DejaVuSans-2a" d="M 3809 666 
L 3809 1919 
L 2778 1919 
L 2778 2438 
L 4434 2438 
L 4434 434 
Q 4069 175 3628 42 
Q 3188 -91 2688 -91 
Q 1594 -91 976 548 
Q 359 1188 359 2328 
Q 359 3472 976 4111 
Q 1594 4750 2688 4750 
Q 3144 4750 3555 4637 
Q 3966 4525 4313 4306 
L 4313 3634 
Q 3963 3931 3569 4081 
Q 3175 4231 2741 4231 
Q 1884 4231 1454 3753 
Q 1025 3275 1025 2328 
Q 1025 1384 1454 906 
Q 1884 428 2741 428 
Q 3075 428 3337 486 
Q 3600 544 3809 666 
z
" transform="scale(0.015625)"/>
       <path id="DejaVuSans-58" d="M 544 1381 
L 544 3500 
L 1119 3500 
L 1119 1403 
Q 1119 906 1312 657 
Q 1506 409 1894 409 
Q 2359 409 2629 706 
Q 2900 1003 2900 1516 
L 2900 3500 
L 3475 3500 
L 3475 0 
L 2900 0 
L 2900 538 
Q 2691 219 2414 64 
Q 2138 -91 1772 -91 
Q 1169 -91 856 284 
Q 544 659 544 1381 
z
M 1991 3584 
L 1991 3584 
z
" transform="scale(0.015625)"/>
       <path id="DejaVuSans-4c" d="M 603 3500 
L 1178 3500 
L 1178 0 
L 603 0 
L 603 3500 
z
M 603 4863 
L 1178 4863 
L 1178 4134 
L 603 4134 
L 603 4863 
z
" transform="scale(0.015625)"/>
       <path id="DejaVuSans-47" d="M 2906 2969 
L 2906 4863 
L 3481 4863 
L 3481 0 
L 2906 0 
L 2906 525 
Q 2725 213 2448 61 
Q 2172 -91 1784 -91 
Q 1150 -91 751 415 
Q 353 922 353 1747 
Q 353 2572 751 3078 
Q 1150 3584 1784 3584 
Q 2172 3584 2448 3432 
Q 2725 3281 2906 2969 
z
M 947 1747 
Q 947 1113 1208 752 
Q 1469 391 1925 391 
Q 2381 391 2643 752 
Q 2906 1113 2906 1747 
Q 2906 2381 2643 2742 
Q 2381 3103 1925 3103 
Q 1469 3103 1208 2742 
Q 947 2381 947 1747 
z
" transform="scale(0.015625)"/>
       <path id="DejaVuSans-48" d="M 3597 1894 
L 3597 1613 
L 953 1613 
Q 991 1019 1311 708 
Q 1631 397 2203 397 
Q 2534 397 2845 478 
Q 3156 559 3463 722 
L 3463 178 
Q 3153 47 2828 -22 
Q 2503 -91 2169 -91 
Q 1331 -91 842 396 
Q 353 884 353 1716 
Q 353 2575 817 3079 
Q 1281 3584 2069 3584 
Q 2775 3584 3186 3129 
Q 3597 2675 3597 1894 
z
M 3022 2063 
Q 3016 2534 2758 2815 
Q 2500 3097 2075 3097 
Q 1594 3097 1305 2825 
Q 1016 2553 972 2059 
L 3022 2063 
z
" transform="scale(0.015625)"/>
       <path id="DejaVuSans-a" d="M 1147 4666 
L 1147 2931 
L 616 2931 
L 616 4666 
L 1147 4666 
z
" transform="scale(0.015625)"/>
       <path id="DejaVuSans-56" d="M 2834 3397 
L 2834 2853 
Q 2591 2978 2328 3040 
Q 2066 3103 1784 3103 
Q 1356 3103 1142 2972 
Q 928 2841 928 2578 
Q 928 2378 1081 2264 
Q 1234 2150 1697 2047 
L 1894 2003 
Q 2506 1872 2764 1633 
Q 3022 1394 3022 966 
Q 3022 478 2636 193 
Q 2250 -91 1575 -91 
Q 1294 -91 989 -36 
Q 684 19 347 128 
L 347 722 
Q 666 556 975 473 
Q 1284 391 1588 391 
Q 1994 391 2212 530 
Q 2431 669 2431 922 
Q 2431 1156 2273 1281 
Q 2116 1406 1581 1522 
L 1381 1569 
Q 847 1681 609 1914 
Q 372 2147 372 2553 
Q 372 3047 722 3315 
Q 1072 3584 1716 3584 
Q 2034 3584 2315 3537 
Q 2597 3491 2834 3397 
z
" transform="scale(0.015625)"/>
       <path id="DejaVuSans-3" transform="scale(0.015625)"/>
       <path id="DejaVuSans-55" d="M 2631 2963 
Q 2534 3019 2420 3045 
Q 2306 3072 2169 3072 
Q 1681 3072 1420 2755 
Q 1159 2438 1159 1844 
L 1159 0 
L 581 0 
L 581 3500 
L 1159 3500 
L 1159 2956 
Q 1341 3275 1631 3429 
Q 1922 3584 2338 3584 
Q 2397 3584 2469 3576 
Q 2541 3569 2628 3553 
L 2631 2963 
z
" transform="scale(0.015625)"/>
       <path id="DejaVuSans-44" d="M 2194 1759 
Q 1497 1759 1228 1600 
Q 959 1441 959 1056 
Q 959 750 1161 570 
Q 1363 391 1709 391 
Q 2188 391 2477 730 
Q 2766 1069 2766 1631 
L 2766 1759 
L 2194 1759 
z
M 3341 1997 
L 3341 0 
L 2766 0 
L 2766 531 
Q 2569 213 2275 61 
Q 1981 -91 1556 -91 
Q 1019 -91 701 211 
Q 384 513 384 1019 
Q 384 1609 779 1909 
Q 1175 2209 1959 2209 
L 2766 2209 
L 2766 2266 
Q 2766 2663 2505 2880 
Q 2244 3097 1772 3097 
Q 1472 3097 1187 3025 
Q 903 2953 641 2809 
L 641 3341 
Q 956 3463 1253 3523 
Q 1550 3584 1831 3584 
Q 2591 3584 2966 3190 
Q 3341 2797 3341 1997 
z
" transform="scale(0.015625)"/>
       <path id="DejaVuSans-57" d="M 1172 4494 
L 1172 3500 
L 2356 3500 
L 2356 3053 
L 1172 3053 
L 1172 1153 
Q 1172 725 1289 603 
Q 1406 481 1766 481 
L 2356 481 
L 2356 0 
L 1766 0 
Q 1100 0 847 248 
Q 594 497 594 1153 
L 594 3053 
L 172 3053 
L 172 3500 
L 594 3500 
L 594 4494 
L 1172 4494 
z
" transform="scale(0.015625)"/>
       <path id="DejaVuSans-52" d="M 1959 3097 
Q 1497 3097 1228 2736 
Q 959 2375 959 1747 
Q 959 1119 1226 758 
Q 1494 397 1959 397 
Q 2419 397 2687 759 
Q 2956 1122 2956 1747 
Q 2956 2369 2687 2733 
Q 2419 3097 1959 3097 
z
M 1959 3584 
Q 2709 3584 3137 3096 
Q 3566 2609 3566 1747 
Q 3566 888 3137 398 
Q 2709 -91 1959 -91 
Q 1206 -91 779 398 
Q 353 888 353 1747 
Q 353 2609 779 3096 
Q 1206 3584 1959 3584 
z
" transform="scale(0.015625)"/>
       <path id="DejaVuSans-49" d="M 2375 4863 
L 2375 4384 
L 1825 4384 
Q 1516 4384 1395 4259 
Q 1275 4134 1275 3809 
L 1275 3500 
L 2222 3500 
L 2222 3053 
L 1275 3053 
L 1275 0 
L 697 0 
L 697 3053 
L 147 3053 
L 147 3500 
L 697 3500 
L 697 3744 
Q 697 4328 969 4595 
Q 1241 4863 1831 4863 
L 2375 4863 
z
" transform="scale(0.015625)"/>
       <path id="DejaVuSans-51" d="M 3513 2113 
L 3513 0 
L 2938 0 
L 2938 2094 
Q 2938 2591 2744 2837 
Q 2550 3084 2163 3084 
Q 1697 3084 1428 2787 
Q 1159 2491 1159 1978 
L 1159 0 
L 581 0 
L 581 3500 
L 1159 3500 
L 1159 2956 
Q 1366 3272 1645 3428 
Q 1925 3584 2291 3584 
Q 2894 3584 3203 3211 
Q 3513 2838 3513 2113 
z
" transform="scale(0.015625)"/>
       <path id="DejaVuSans-50" d="M 3328 2828 
Q 3544 3216 3844 3400 
Q 4144 3584 4550 3584 
Q 5097 3584 5394 3201 
Q 5691 2819 5691 2113 
L 5691 0 
L 5113 0 
L 5113 2094 
Q 5113 2597 4934 2840 
Q 4756 3084 4391 3084 
Q 3944 3084 3684 2787 
Q 3425 2491 3425 1978 
L 3425 0 
L 2847 0 
L 2847 2094 
Q 2847 2600 2669 2842 
Q 2491 3084 2119 3084 
Q 1678 3084 1418 2786 
Q 1159 2488 1159 1978 
L 1159 0 
L 581 0 
L 581 3500 
L 1159 3500 
L 1159 2956 
Q 1356 3278 1631 3431 
Q 1906 3584 2284 3584 
Q 2666 3584 2933 3390 
Q 3200 3197 3328 2828 
z
" transform="scale(0.015625)"/>
       <path id="DejaVuSans-4f" d="M 603 4863 
L 1178 4863 
L 1178 0 
L 603 0 
L 603 4863 
z
" transform="scale(0.015625)"/>
       <path id="DejaVuSans-46" d="M 3122 3366 
L 3122 2828 
Q 2878 2963 2633 3030 
Q 2388 3097 2138 3097 
Q 1578 3097 1268 2742 
Q 959 2388 959 1747 
Q 959 1106 1268 751 
Q 1578 397 2138 397 
Q 2388 397 2633 464 
Q 2878 531 3122 666 
L 3122 134 
Q 2881 22 2623 -34 
Q 2366 -91 2075 -91 
Q 1284 -91 818 406 
Q 353 903 353 1747 
Q 353 2603 823 3093 
Q 1294 3584 2113 3584 
Q 2378 3584 2631 3529 
Q 2884 3475 3122 3366 
z
" transform="scale(0.015625)"/>
       <path id="DejaVuSans-4a" d="M 2906 1791 
Q 2906 2416 2648 2759 
Q 2391 3103 1925 3103 
Q 1463 3103 1205 2759 
Q 947 2416 947 1791 
Q 947 1169 1205 825 
Q 1463 481 1925 481 
Q 2391 481 2648 825 
Q 2906 1169 2906 1791 
z
M 3481 434 
Q 3481 -459 3084 -895 
Q 2688 -1331 1869 -1331 
Q 1566 -1331 1297 -1286 
Q 1028 -1241 775 -1147 
L 775 -588 
Q 1028 -725 1275 -790 
Q 1522 -856 1778 -856 
Q 2344 -856 2625 -561 
Q 2906 -266 2906 331 
L 2906 616 
Q 2728 306 2450 153 
Q 2172 0 1784 0 
Q 1141 0 747 490 
Q 353 981 353 1791 
Q 353 2603 747 3093 
Q 1141 3584 1784 3584 
Q 2172 3584 2450 3431 
Q 2728 3278 2906 2969 
L 2906 3500 
L 3481 3500 
L 3481 434 
z
" transform="scale(0.015625)"/>
      </defs>
      <use xlink:href="#DejaVuSans-2a"/>
      <use xlink:href="#DejaVuSans-58" transform="translate(77.484375 0)"/>
      <use xlink:href="#DejaVuSans-4c" transform="translate(140.859375 0)"/>
      <use xlink:href="#DejaVuSans-47" transform="translate(168.640625 0)"/>
      <use xlink:href="#DejaVuSans-48" transform="translate(232.125 0)"/>
      <use xlink:href="#DejaVuSans-a" transform="translate(293.65625 0)"/>
      <use xlink:href="#DejaVuSans-56" transform="translate(321.140625 0)"/>
      <use xlink:href="#DejaVuSans-3" transform="translate(373.234375 0)"/>
      <use xlink:href="#DejaVuSans-55" transform="translate(405.015625 0)"/>
      <use xlink:href="#DejaVuSans-44" transform="translate(446.125 0)"/>
      <use xlink:href="#DejaVuSans-57" transform="translate(507.40625 0)"/>
      <use xlink:href="#DejaVuSans-4c" transform="translate(546.609375 0)"/>
      <use xlink:href="#DejaVuSans-52" transform="translate(574.390625 0)"/>
      <use xlink:href="#DejaVuSans-3" transform="translate(635.578125 0)"/>
      <use xlink:href="#DejaVuSans-52" transform="translate(667.359375 0)"/>
      <use xlink:href="#DejaVuSans-49" transform="translate(728.546875 0)"/>
      <use xlink:href="#DejaVuSans-3" transform="translate(763.75 0)"/>
      <use xlink:href="#DejaVuSans-51" transform="translate(795.53125 0)"/>
      <use xlink:href="#DejaVuSans-52" transform="translate(858.90625 0)"/>
      <use xlink:href="#DejaVuSans-55" transform="translate(920.09375 0)"/>
      <use xlink:href="#DejaVuSans-50" transform="translate(959.453125 0)"/>
      <use xlink:href="#DejaVuSans-44" transform="translate(1056.859375 0)"/>
      <use xlink:href="#DejaVuSans-4f" transform="translate(1118.140625 0)"/>
      <use xlink:href="#DejaVuSans-3" transform="translate(1145.921875 0)"/>
      <use xlink:href="#DejaVuSans-49" transform="translate(1177.703125 0)"/>
      <use xlink:href="#DejaVuSans-52" transform="translate(1212.90625 0)"/>
      <use xlink:href="#DejaVuSans-55" transform="translate(1274.09375 0)"/>
      <use xlink:href="#DejaVuSans-46" transform="translate(1313 0)"/>
      <use xlink:href="#DejaVuSans-48" transform="translate(1367.984375 0)"/>
      <use xlink:href="#DejaVuSans-3" transform="translate(1429.515625 0)"/>
      <use xlink:href="#DejaVuSans-57" transform="translate(1461.296875 0)"/>
      <use xlink:href="#DejaVuSans-52" transform="translate(1500.5 0)"/>
      <use xlink:href="#DejaVuSans-3" transform="translate(1561.6875 0)"/>
      <use xlink:href="#DejaVuSans-47" transform="translate(1593.46875 0)"/>
      <use xlink:href="#DejaVuSans-55" transform="translate(1656.953125 0)"/>
      <use xlink:href="#DejaVuSans-44" transform="translate(1698.0625 0)"/>
      <use xlink:href="#DejaVuSans-4a" transform="translate(1759.34375 0)"/>
     </g>
    </g>
   </g>
   <g id="matplotlib.axis_2">
    <g id="ytick_1">
     <g id="line2d_11">
      <path d="M 28.765865 187.982724 
L 232.981791 187.982724 
" clip-path="url(#p9cd13b96df)" style="fill: none; stroke: #e1e0d9; stroke-width: 0.8; stroke-linecap: round"/>
     </g>
     <g id="line2d_12"/>
     <g id="text_7">
      <!-- 0.01 -->
      <g style="fill: #52514e" transform="translate(3.00024 191.781552) scale(0.1 -0.1)">
       <defs>
        <path id="DejaVuSans-11" d="M 684 794 
L 1344 794 
L 1344 0 
L 684 0 
L 684 794 
z
" transform="scale(0.015625)"/>
       </defs>
       <use xlink:href="#DejaVuSans-13"/>
       <use xlink:href="#DejaVuSans-11" transform="translate(63.625 0)"/>
       <use xlink:href="#DejaVuSans-13" transform="translate(95.40625 0)"/>
       <use xlink:href="#DejaVuSans-14" transform="translate(159.03125 0)"/>
      </g>
     </g>
    </g>
    <g id="ytick_2">
     <g id="line2d_13">
      <path d="M 28.765865 138.802925 
L 232.981791 138.802925 
" clip-path="url(#p9cd13b96df)" style="fill: none; stroke: #e1e0d9; stroke-width: 0.8; stroke-linecap: round"/>
     </g>
     <g id="line2d_14"/>
     <g id="text_8">
      <!-- 0.1 -->
      <g style="fill: #52514e" transform="translate(9.36274 142.601753) scale(0.1 -0.1)">
       <use xlink:href="#DejaVuSans-13"/>
       <use xlink:href="#DejaVuSans-11" transform="translate(63.625 0)"/>
       <use xlink:href="#DejaVuSans-14" transform="translate(95.40625 0)"/>
      </g>
     </g>
    </g>
    <g id="ytick_3">
     <g id="line2d_15">
      <path d="M 28.765865 89.623126 
L 232.981791 89.623126 
" clip-path="url(#p9cd13b96df)" style="fill: none; stroke: #e1e0d9; stroke-width: 0.8; stroke-linecap: round"/>
     </g>
     <g id="line2d_16"/>
     <g id="text_9">
      <!-- 1 -->
      <g style="fill: #52514e" transform="translate(18.903365 93.421954) scale(0.1 -0.1)">
       <use xlink:href="#DejaVuSans-14"/>
      </g>
     </g>
    </g>
    <g id="ytick_4">
     <g id="line2d_17">
      <path d="M 28.765865 40.443327 
L 232.981791 40.443327 
" clip-path="url(#p9cd13b96df)" style="fill: none; stroke: #e1e0d9; stroke-width: 0.8; stroke-linecap: round"/>
     </g>
     <g id="line2d_18"/>
     <g id="text_10">
      <!-- 10 -->
      <g style="fill: #52514e" transform="translate(12.540865 44.242155) scale(0.1 -0.1)">
       <use xlink:href="#DejaVuSans-14"/>
       <use xlink:href="#DejaVuSans-13" transform="translate(63.625 0)"/>
      </g>
     </g>
    </g>
   </g>
   <g id="line2d_19">
    <path d="M 38.048407 98.468783 
L 40.369043 100.911133 
L 42.689678 103.351468 
L 45.010314 105.789546 
L 47.330949 108.225096 
L 49.651585 110.657817 
L 51.97222 113.087371 
L 54.292856 115.513382 
L 56.613491 117.935429 
L 58.934127 120.353045 
L 61.254762 122.765707 
L 63.575398 125.172835 
L 65.896033 127.573786 
L 68.216669 129.967841 
L 70.537304 132.354207 
L 72.85794 134.732005 
L 75.178576 137.100262 
L 77.499211 139.457905 
L 79.819847 141.803751 
L 82.140482 144.1365 
L 84.461118 146.454729 
L 86.781753 148.756879 
L 89.102389 151.041252 
L 91.423024 153.306002 
L 93.74366 155.549135 
L 96.064295 157.768498 
L 98.384931 159.961784 
L 100.705566 162.126532 
L 103.026202 164.260132 
L 105.346837 166.359835 
L 107.667473 168.422764 
L 109.988108 170.445939 
L 112.308744 172.426294 
L 114.629379 174.360715 
L 116.950015 176.24607 
L 119.27065 178.079255 
L 121.591286 179.857241 
L 123.911922 181.577122 
L 126.232557 183.236172 
L 128.553193 184.831897 
L 130.873828 186.362092 
L 133.194464 187.824888 
L 135.515099 189.218799 
L 137.835735 190.542759 
L 140.15637 191.796146 
L 142.477006 192.978802 
L 144.797641 194.091038 
L 147.118277 195.13362 
L 149.438912 196.107755 
L 151.759548 197.015059 
L 154.080183 197.857513 
L 156.400819 198.637423 
L 158.721454 199.357364 
L 161.04209 200.020126 
L 163.362725 200.62866 
L 165.683361 201.186027 
L 168.003997 201.695344 
L 170.324632 202.15974 
L 172.645268 202.58232 
L 174.965903 202.966122 
L 177.286539 203.314098 
L 179.607174 203.629083 
L 181.92781 203.913783 
L 184.248445 204.17076 
L 186.569081 204.402427 
L 188.889716 204.611039 
L 191.210352 204.798698 
L 193.530987 204.96735 
L 195.851623 205.118792 
L 198.172258 205.254676 
L 200.492894 205.376516 
L 202.813529 205.485694 
L 205.134165 205.583472 
L 207.4548 205.670996 
L 209.775436 205.749305 
L 212.096072 205.81934 
L 214.416707 205.881954 
L 216.737343 205.937913 
L 219.057978 205.987911 
L 221.378614 206.032571 
L 223.699249 206.072452 
" clip-path="url(#p9cd13b96df)" style="fill: none; stroke: #2a78d6; stroke-width: 1.8; stroke-linecap: round"/>
   </g>
   <g id="line2d_20">
    <path d="M 38.048407 56.059992 
L 40.369043 58.502342 
L 42.689678 60.942676 
L 45.010314 63.380754 
L 47.330949 65.816305 
L 49.651585 68.249026 
L 51.97222 70.67858 
L 54.292856 73.104591 
L 56.613491 75.526638 
L 58.934127 77.944253 
L 61.254762 80.356916 
L 63.575398 82.764044 
L 65.896033 85.164994 
L 68.216669 87.55905 
L 70.537304 89.945416 
L 72.85794 92.323214 
L 75.178576 94.691471 
L 77.499211 97.049114 
L 79.819847 99.39496 
L 82.140482 101.727709 
L 84.461118 104.045938 
L 86.781753 106.348088 
L 89.102389 108.63246 
L 91.423024 110.897211 
L 93.74366 113.140344 
L 96.064295 115.359707 
L 98.384931 117.552993 
L 100.705566 119.717741 
L 103.026202 121.851341 
L 105.346837 123.951044 
L 107.667473 126.013973 
L 109.988108 128.037148 
L 112.308744 130.017503 
L 114.629379 131.951924 
L 116.950015 133.837279 
L 119.27065 135.670464 
L 121.591286 137.44845 
L 123.911922 139.168331 
L 126.232557 140.82738 
L 128.553193 142.423106 
L 130.873828 143.953301 
L 133.194464 145.416097 
L 135.515099 146.810008 
L 137.835735 148.133967 
L 140.15637 149.387354 
L 142.477006 150.570011 
L 144.797641 151.682247 
L 147.118277 152.724829 
L 149.438912 153.698964 
L 151.759548 154.606267 
L 154.080183 155.448722 
L 156.400819 156.228632 
L 158.721454 156.948573 
L 161.04209 157.611335 
L 163.362725 158.219869 
L 165.683361 158.777236 
L 168.003997 159.286553 
L 170.324632 159.750949 
L 172.645268 160.173529 
L 174.965903 160.557331 
L 177.286539 160.905307 
L 179.607174 161.220292 
L 181.92781 161.504991 
L 184.248445 161.761969 
L 186.569081 161.993635 
L 188.889716 162.202248 
L 191.210352 162.389907 
L 193.530987 162.558559 
L 195.851623 162.710001 
L 198.172258 162.845885 
L 200.492894 162.967724 
L 202.813529 163.076903 
L 205.134165 163.174681 
L 207.4548 163.262205 
L 209.775436 163.340513 
L 212.096072 163.410549 
L 214.416707 163.473163 
L 216.737343 163.529122 
L 219.057978 163.57912 
L 221.378614 163.623779 
L 223.699249 163.663661 
" clip-path="url(#p9cd13b96df)" style="fill: none; stroke: #eb6834; stroke-width: 1.8; stroke-linecap: round"/>
   </g>
   <g id="line2d_21">
    <path d="M 38.048407 9.697404 
L 40.369043 12.139754 
L 42.689678 14.580088 
L 45.010314 17.018166 
L 47.330949 19.453717 
L 49.651585 21.886438 
L 51.97222 24.315992 
L 54.292856 26.742003 
L 56.613491 29.16405 
L 58.934127 31.581665 
L 61.254762 33.994328 
L 63.575398 36.401456 
L 65.896033 38.802406 
L 68.216669 41.196462 
L 70.537304 43.582828 
L 72.85794 45.960626 
L 75.178576 48.328883 
L 77.499211 50.686526 
L 79.819847 53.032372 
L 82.140482 55.365121 
L 84.461118 57.68335 
L 86.781753 59.9855 
L 89.102389 62.269872 
L 91.423024 64.534623 
L 93.74366 66.777756 
L 96.064295 68.997119 
L 98.384931 71.190405 
L 100.705566 73.355153 
L 103.026202 75.488753 
L 105.346837 77.588456 
L 107.667473 79.651385 
L 109.988108 81.67456 
L 112.308744 83.654915 
L 114.629379 85.589336 
L 116.950015 87.474691 
L 119.27065 89.307876 
L 121.591286 91.085862 
L 123.911922 92.805743 
L 126.232557 94.464792 
L 128.553193 96.060518 
L 130.873828 97.590713 
L 133.194464 99.053509 
L 135.515099 100.44742 
L 137.835735 101.771379 
L 140.15637 103.024766 
L 142.477006 104.207423 
L 144.797641 105.319659 
L 147.118277 106.362241 
L 149.438912 107.336376 
L 151.759548 108.243679 
L 154.080183 109.086134 
L 156.400819 109.866044 
L 158.721454 110.585985 
L 161.04209 111.248747 
L 163.362725 111.857281 
L 165.683361 112.414648 
L 168.003997 112.923965 
L 170.324632 113.388361 
L 172.645268 113.810941 
L 174.965903 114.194743 
L 177.286539 114.542719 
L 179.607174 114.857704 
L 181.92781 115.142403 
L 184.248445 115.399381 
L 186.569081 115.631047 
L 188.889716 115.83966 
L 191.210352 116.027319 
L 193.530987 116.195971 
L 195.851623 116.347413 
L 198.172258 116.483297 
L 200.492894 116.605136 
L 202.813529 116.714315 
L 205.134165 116.812093 
L 207.4548 116.899617 
L 209.775436 116.977925 
L 212.096072 117.047961 
L 214.416707 117.110575 
L 216.737343 117.166534 
L 219.057978 117.216532 
L 221.378614 117.261191 
L 223.699249 117.301073 
" clip-path="url(#p9cd13b96df)" style="fill: none; stroke: #1baf7a; stroke-width: 1.8; stroke-linecap: round"/>
   </g>
   <g id="line2d_22">
    <path d="M 49.989758 -1 
L 51.97222 1.075508 
L 54.292856 3.501519 
L 56.613491 5.923566 
L 58.934127 8.341182 
L 61.254762 10.753844 
L 63.575398 13.160972 
L 65.896033 15.561923 
L 68.216669 17.955978 
L 70.537304 20.342344 
L 72.85794 22.720142 
L 75.178576 25.088399 
L 77.499211 27.446042 
L 79.819847 29.791888 
L 82.140482 32.124637 
L 84.461118 34.442866 
L 86.781753 36.745016 
L 89.102389 39.029389 
L 91.423024 41.294139 
L 93.74366 43.537272 
L 96.064295 45.756635 
L 98.384931 47.949921 
L 100.705566 50.114669 
L 103.026202 52.248269 
L 105.346837 54.347972 
L 107.667473 56.410901 
L 109.988108 58.434076 
L 112.308744 60.414431 
L 114.629379 62.348852 
L 116.950015 64.234207 
L 119.27065 66.067392 
L 121.591286 67.845378 
L 123.911922 69.565259 
L 126.232557 71.224309 
L 128.553193 72.820034 
L 130.873828 74.350229 
L 133.194464 75.813025 
L 135.515099 77.206936 
L 137.835735 78.530896 
L 140.15637 79.784283 
L 142.477006 80.966939 
L 144.797641 82.079175 
L 147.118277 83.121757 
L 149.438912 84.095892 
L 151.759548 85.003196 
L 154.080183 85.84565 
L 156.400819 86.62556 
L 158.721454 87.345501 
L 161.04209 88.008263 
L 163.362725 88.616797 
L 165.683361 89.174164 
L 168.003997 89.683481 
L 170.324632 90.147877 
L 172.645268 90.570457 
L 174.965903 90.954259 
L 177.286539 91.302235 
L 179.607174 91.61722 
L 181.92781 91.90192 
L 184.248445 92.158897 
L 186.569081 92.390564 
L 188.889716 92.599176 
L 191.210352 92.786835 
L 193.530987 92.955487 
L 195.851623 93.106929 
L 198.172258 93.242813 
L 200.492894 93.364653 
L 202.813529 93.473831 
L 205.134165 93.571609 
L 207.4548 93.659133 
L 209.775436 93.737442 
L 212.096072 93.807477 
L 214.416707 93.870091 
L 216.737343 93.92605 
L 219.057978 93.976048 
L 221.378614 94.020708 
L 223.699249 94.060589 
" clip-path="url(#p9cd13b96df)" style="fill: none; stroke: #eda100; stroke-width: 1.8; stroke-linecap: round"/>
   </g>
   <g id="line2d_23">
    <path d="M 28.765865 89.623126 
L 232.981791 89.623126 
" clip-path="url(#p9cd13b96df)" style="fill: none; stroke-dasharray: 4,3; stroke-dashoffset: 0; stroke: #52514e"/>
   </g>
   <g id="patch_3">
    <path d="M 28.765865 213.697796 
L 28.765865 16.978599 
" style="fill: none; stroke: #c3c2b7; stroke-width: 0.8; stroke-linejoin: miter; stroke-linecap: square"/>
   </g>
   <g id="patch_4">
    <path d="M 28.765865 213.697796 
L 232.981791 213.697796 
" style="fill: none; stroke: #c3c2b7; stroke-width: 0.8; stroke-linejoin: miter; stroke-linecap: square"/>
   </g>
   <g id="text_11">
    <!-- Gain of the closure loop -->
    <g style="fill: #0b0b0b" transform="translate(28.765865 10.978599) scale(0.105 -0.105)">
     <defs>
      <path id="DejaVuSans-Bold-2a" d="M 4781 347 
Q 4331 128 3847 18 
Q 3363 -91 2847 -91 
Q 1681 -91 1000 561 
Q 319 1213 319 2328 
Q 319 3456 1012 4103 
Q 1706 4750 2913 4750 
Q 3378 4750 3804 4662 
Q 4231 4575 4609 4403 
L 4609 3438 
Q 4219 3659 3833 3768 
Q 3447 3878 3059 3878 
Q 2341 3878 1952 3476 
Q 1563 3075 1563 2328 
Q 1563 1588 1938 1184 
Q 2313 781 3003 781 
Q 3191 781 3352 804 
Q 3513 828 3641 878 
L 3641 1784 
L 2906 1784 
L 2906 2591 
L 4781 2591 
L 4781 347 
z
" transform="scale(0.015625)"/>
      <path id="DejaVuSans-Bold-44" d="M 2106 1575 
Q 1756 1575 1579 1456 
Q 1403 1338 1403 1106 
Q 1403 894 1545 773 
Q 1688 653 1941 653 
Q 2256 653 2472 879 
Q 2688 1106 2688 1447 
L 2688 1575 
L 2106 1575 
z
M 3816 1997 
L 3816 0 
L 2688 0 
L 2688 519 
Q 2463 200 2181 54 
Q 1900 -91 1497 -91 
Q 953 -91 614 226 
Q 275 544 275 1050 
Q 275 1666 698 1953 
Q 1122 2241 2028 2241 
L 2688 2241 
L 2688 2328 
Q 2688 2594 2478 2717 
Q 2269 2841 1825 2841 
Q 1466 2841 1156 2769 
Q 847 2697 581 2553 
L 581 3406 
Q 941 3494 1303 3539 
Q 1666 3584 2028 3584 
Q 2975 3584 3395 3211 
Q 3816 2838 3816 1997 
z
" transform="scale(0.015625)"/>
      <path id="DejaVuSans-Bold-4c" d="M 538 3500 
L 1656 3500 
L 1656 0 
L 538 0 
L 538 3500 
z
M 538 4863 
L 1656 4863 
L 1656 3950 
L 538 3950 
L 538 4863 
z
" transform="scale(0.015625)"/>
      <path id="DejaVuSans-Bold-51" d="M 4056 2131 
L 4056 0 
L 2931 0 
L 2931 347 
L 2931 1631 
Q 2931 2084 2911 2256 
Q 2891 2428 2841 2509 
Q 2775 2619 2662 2680 
Q 2550 2741 2406 2741 
Q 2056 2741 1856 2470 
Q 1656 2200 1656 1722 
L 1656 0 
L 538 0 
L 538 3500 
L 1656 3500 
L 1656 2988 
Q 1909 3294 2193 3439 
Q 2478 3584 2822 3584 
Q 3428 3584 3742 3212 
Q 4056 2841 4056 2131 
z
" transform="scale(0.015625)"/>
      <path id="DejaVuSans-Bold-3" transform="scale(0.015625)"/>
      <path id="DejaVuSans-Bold-52" d="M 2203 2784 
Q 1831 2784 1636 2517 
Q 1441 2250 1441 1747 
Q 1441 1244 1636 976 
Q 1831 709 2203 709 
Q 2569 709 2762 976 
Q 2956 1244 2956 1747 
Q 2956 2250 2762 2517 
Q 2569 2784 2203 2784 
z
M 2203 3584 
Q 3106 3584 3614 3096 
Q 4122 2609 4122 1747 
Q 4122 884 3614 396 
Q 3106 -91 2203 -91 
Q 1297 -91 786 396 
Q 275 884 275 1747 
Q 275 2609 786 3096 
Q 1297 3584 2203 3584 
z
" transform="scale(0.015625)"/>
      <path id="DejaVuSans-Bold-49" d="M 2841 4863 
L 2841 4128 
L 2222 4128 
Q 1984 4128 1890 4042 
Q 1797 3956 1797 3744 
L 1797 3500 
L 2753 3500 
L 2753 2700 
L 1797 2700 
L 1797 0 
L 678 0 
L 678 2700 
L 122 2700 
L 122 3500 
L 678 3500 
L 678 3744 
Q 678 4316 997 4589 
Q 1316 4863 1984 4863 
L 2841 4863 
z
" transform="scale(0.015625)"/>
      <path id="DejaVuSans-Bold-57" d="M 1759 4494 
L 1759 3500 
L 2913 3500 
L 2913 2700 
L 1759 2700 
L 1759 1216 
Q 1759 972 1856 886 
Q 1953 800 2241 800 
L 2816 800 
L 2816 0 
L 1856 0 
Q 1194 0 917 276 
Q 641 553 641 1216 
L 641 2700 
L 84 2700 
L 84 3500 
L 641 3500 
L 641 4494 
L 1759 4494 
z
" transform="scale(0.015625)"/>
      <path id="DejaVuSans-Bold-4b" d="M 4056 2131 
L 4056 0 
L 2931 0 
L 2931 347 
L 2931 1625 
Q 2931 2084 2911 2256 
Q 2891 2428 2841 2509 
Q 2775 2619 2662 2680 
Q 2550 2741 2406 2741 
Q 2056 2741 1856 2470 
Q 1656 2200 1656 1722 
L 1656 0 
L 538 0 
L 538 4863 
L 1656 4863 
L 1656 2988 
Q 1909 3294 2193 3439 
Q 2478 3584 2822 3584 
Q 3428 3584 3742 3212 
Q 4056 2841 4056 2131 
z
" transform="scale(0.015625)"/>
      <path id="DejaVuSans-Bold-48" d="M 4031 1759 
L 4031 1441 
L 1416 1441 
Q 1456 1047 1700 850 
Q 1944 653 2381 653 
Q 2734 653 3104 758 
Q 3475 863 3866 1075 
L 3866 213 
Q 3469 63 3072 -14 
Q 2675 -91 2278 -91 
Q 1328 -91 801 392 
Q 275 875 275 1747 
Q 275 2603 792 3093 
Q 1309 3584 2216 3584 
Q 3041 3584 3536 3087 
Q 4031 2591 4031 1759 
z
M 2881 2131 
Q 2881 2450 2695 2645 
Q 2509 2841 2209 2841 
Q 1884 2841 1681 2658 
Q 1478 2475 1428 2131 
L 2881 2131 
z
" transform="scale(0.015625)"/>
      <path id="DejaVuSans-Bold-46" d="M 3366 3391 
L 3366 2478 
Q 3138 2634 2908 2709 
Q 2678 2784 2431 2784 
Q 1963 2784 1702 2511 
Q 1441 2238 1441 1747 
Q 1441 1256 1702 982 
Q 1963 709 2431 709 
Q 2694 709 2930 787 
Q 3166 866 3366 1019 
L 3366 103 
Q 3103 6 2833 -42 
Q 2563 -91 2291 -91 
Q 1344 -91 809 395 
Q 275 881 275 1747 
Q 275 2613 809 3098 
Q 1344 3584 2291 3584 
Q 2566 3584 2833 3536 
Q 3100 3488 3366 3391 
z
" transform="scale(0.015625)"/>
      <path id="DejaVuSans-Bold-4f" d="M 538 4863 
L 1656 4863 
L 1656 0 
L 538 0 
L 538 4863 
z
" transform="scale(0.015625)"/>
      <path id="DejaVuSans-Bold-56" d="M 3272 3391 
L 3272 2541 
Q 2913 2691 2578 2766 
Q 2244 2841 1947 2841 
Q 1628 2841 1473 2761 
Q 1319 2681 1319 2516 
Q 1319 2381 1436 2309 
Q 1553 2238 1856 2203 
L 2053 2175 
Q 2913 2066 3209 1816 
Q 3506 1566 3506 1031 
Q 3506 472 3093 190 
Q 2681 -91 1863 -91 
Q 1516 -91 1145 -36 
Q 775 19 384 128 
L 384 978 
Q 719 816 1070 734 
Q 1422 653 1784 653 
Q 2113 653 2278 743 
Q 2444 834 2444 1013 
Q 2444 1163 2330 1236 
Q 2216 1309 1875 1350 
L 1678 1375 
Q 931 1469 631 1722 
Q 331 1975 331 2491 
Q 331 3047 712 3315 
Q 1094 3584 1881 3584 
Q 2191 3584 2531 3537 
Q 2872 3491 3272 3391 
z
" transform="scale(0.015625)"/>
      <path id="DejaVuSans-Bold-58" d="M 500 1363 
L 500 3500 
L 1625 3500 
L 1625 3150 
Q 1625 2866 1622 2436 
Q 1619 2006 1619 1863 
Q 1619 1441 1641 1255 
Q 1663 1069 1716 984 
Q 1784 875 1895 815 
Q 2006 756 2150 756 
Q 2500 756 2700 1025 
Q 2900 1294 2900 1772 
L 2900 3500 
L 4019 3500 
L 4019 0 
L 2900 0 
L 2900 506 
Q 2647 200 2364 54 
Q 2081 -91 1741 -91 
Q 1134 -91 817 281 
Q 500 653 500 1363 
z
" transform="scale(0.015625)"/>
      <path id="DejaVuSans-Bold-55" d="M 3138 2547 
Q 2991 2616 2845 2648 
Q 2700 2681 2553 2681 
Q 2122 2681 1889 2404 
Q 1656 2128 1656 1613 
L 1656 0 
L 538 0 
L 538 3500 
L 1656 3500 
L 1656 2925 
Q 1872 3269 2151 3426 
Q 2431 3584 2822 3584 
Q 2878 3584 2943 3579 
Q 3009 3575 3134 3559 
L 3138 2547 
z
" transform="scale(0.015625)"/>
      <path id="DejaVuSans-Bold-53" d="M 1656 506 
L 1656 -1331 
L 538 -1331 
L 538 3500 
L 1656 3500 
L 1656 2988 
Q 1888 3294 2169 3439 
Q 2450 3584 2816 3584 
Q 3463 3584 3878 3070 
Q 4294 2556 4294 1747 
Q 4294 938 3878 423 
Q 3463 -91 2816 -91 
Q 2450 -91 2169 54 
Q 1888 200 1656 506 
z
M 2400 2772 
Q 2041 2772 1848 2508 
Q 1656 2244 1656 1747 
Q 1656 1250 1848 986 
Q 2041 722 2400 722 
Q 2759 722 2948 984 
Q 3138 1247 3138 1747 
Q 3138 2247 2948 2509 
Q 2759 2772 2400 2772 
z
" transform="scale(0.015625)"/>
     </defs>
     <use xlink:href="#DejaVuSans-Bold-2a"/>
     <use xlink:href="#DejaVuSans-Bold-44" transform="translate(82.078125 0)"/>
     <use xlink:href="#DejaVuSans-Bold-4c" transform="translate(149.5625 0)"/>
     <use xlink:href="#DejaVuSans-Bold-51" transform="translate(183.84375 0)"/>
     <use xlink:href="#DejaVuSans-Bold-3" transform="translate(255.03125 0)"/>
     <use xlink:href="#DejaVuSans-Bold-52" transform="translate(289.84375 0)"/>
     <use xlink:href="#DejaVuSans-Bold-49" transform="translate(358.546875 0)"/>
     <use xlink:href="#DejaVuSans-Bold-3" transform="translate(402.046875 0)"/>
     <use xlink:href="#DejaVuSans-Bold-57" transform="translate(436.859375 0)"/>
     <use xlink:href="#DejaVuSans-Bold-4b" transform="translate(484.65625 0)"/>
     <use xlink:href="#DejaVuSans-Bold-48" transform="translate(555.84375 0)"/>
     <use xlink:href="#DejaVuSans-Bold-3" transform="translate(623.671875 0)"/>
     <use xlink:href="#DejaVuSans-Bold-46" transform="translate(658.484375 0)"/>
     <use xlink:href="#DejaVuSans-Bold-4f" transform="translate(717.765625 0)"/>
     <use xlink:href="#DejaVuSans-Bold-52" transform="translate(752.046875 0)"/>
     <use xlink:href="#DejaVuSans-Bold-56" transform="translate(820.75 0)"/>
     <use xlink:href="#DejaVuSans-Bold-58" transform="translate(880.265625 0)"/>
     <use xlink:href="#DejaVuSans-Bold-55" transform="translate(951.453125 0)"/>
     <use xlink:href="#DejaVuSans-Bold-48" transform="translate(1000.765625 0)"/>
     <use xlink:href="#DejaVuSans-Bold-3" transform="translate(1068.59375 0)"/>
     <use xlink:href="#DejaVuSans-Bold-4f" transform="translate(1103.40625 0)"/>
     <use xlink:href="#DejaVuSans-Bold-52" transform="translate(1137.6875 0)"/>
     <use xlink:href="#DejaVuSans-Bold-52" transform="translate(1206.390625 0)"/>
     <use xlink:href="#DejaVuSans-Bold-53" transform="translate(1275.09375 0)"/>
    </g>
   </g>
  </g>
  <g id="axes_2">
   <g id="patch_5">
    <path d="M 282.383834 213.697796 
L 486.59976 213.697796 
L 486.59976 16.978599 
L 282.383834 16.978599 
z
" style="fill: #ffffff"/>
   </g>
   <g id="matplotlib.axis_3">
    <g id="xtick_6">
     <g id="line2d_24">
      <path d="M 291.666376 213.697796 
L 291.666376 16.978599 
" clip-path="url(#p6687addea1)" style="fill: none; stroke: #e1e0d9; stroke-width: 0.8; stroke-linecap: round"/>
     </g>
     <g id="line2d_25"/>
     <g id="text_12">
      <!-- 10³ -->
      <g style="fill: #52514e" transform="translate(283.299188 224.795452) scale(0.1 -0.1)">
       <use xlink:href="#DejaVuSans-14"/>
       <use xlink:href="#DejaVuSans-13" transform="translate(63.625 0)"/>
       <use xlink:href="#DejaVuSans-75" transform="translate(127.25 0)"/>
      </g>
     </g>
    </g>
    <g id="xtick_7">
     <g id="line2d_26">
      <path d="M 338.079086 213.697796 
L 338.079086 16.978599 
" clip-path="url(#p6687addea1)" style="fill: none; stroke: #e1e0d9; stroke-width: 0.8; stroke-linecap: round"/>
     </g>
     <g id="line2d_27"/>
     <g id="text_13">
      <!-- 10⁴ -->
      <g style="fill: #52514e" transform="translate(329.711899 224.795452) scale(0.1 -0.1)">
       <use xlink:href="#DejaVuSans-14"/>
       <use xlink:href="#DejaVuSans-13" transform="translate(63.625 0)"/>
       <use xlink:href="#DejaVuSans-b4f" transform="translate(127.25 0)"/>
      </g>
     </g>
    </g>
    <g id="xtick_8">
     <g id="line2d_28">
      <path d="M 384.491797 213.697796 
L 384.491797 16.978599 
" clip-path="url(#p6687addea1)" style="fill: none; stroke: #e1e0d9; stroke-width: 0.8; stroke-linecap: round"/>
     </g>
     <g id="line2d_29"/>
     <g id="text_14">
      <!-- 10⁵ -->
      <g style="fill: #52514e" transform="translate(376.124609 224.795452) scale(0.1 -0.1)">
       <use xlink:href="#DejaVuSans-14"/>
       <use xlink:href="#DejaVuSans-13" transform="translate(63.625 0)"/>
       <use xlink:href="#DejaVuSans-b50" transform="translate(127.25 0)"/>
      </g>
     </g>
    </g>
    <g id="xtick_9">
     <g id="line2d_30">
      <path d="M 430.904507 213.697796 
L 430.904507 16.978599 
" clip-path="url(#p6687addea1)" style="fill: none; stroke: #e1e0d9; stroke-width: 0.8; stroke-linecap: round"/>
     </g>
     <g id="line2d_31"/>
     <g id="text_15">
      <!-- 10⁶ -->
      <g style="fill: #52514e" transform="translate(422.53732 224.795452) scale(0.1 -0.1)">
       <use xlink:href="#DejaVuSans-14"/>
       <use xlink:href="#DejaVuSans-13" transform="translate(63.625 0)"/>
       <use xlink:href="#DejaVuSans-b51" transform="translate(127.25 0)"/>
      </g>
     </g>
    </g>
    <g id="xtick_10">
     <g id="line2d_32">
      <path d="M 477.317218 213.697796 
L 477.317218 16.978599 
" clip-path="url(#p6687addea1)" style="fill: none; stroke: #e1e0d9; stroke-width: 0.8; stroke-linecap: round"/>
     </g>
     <g id="line2d_33"/>
     <g id="text_16">
      <!-- 10⁷ -->
      <g style="fill: #52514e" transform="translate(468.95003 224.795452) scale(0.1 -0.1)">
       <use xlink:href="#DejaVuSans-14"/>
       <use xlink:href="#DejaVuSans-13" transform="translate(63.625 0)"/>
       <use xlink:href="#DejaVuSans-b52" transform="translate(127.25 0)"/>
      </g>
     </g>
    </g>
    <g id="text_17">
     <!-- Guide's ratio of normal force to drag -->
     <g style="fill: #52514e" transform="translate(293.350391 238.796233) scale(0.1 -0.1)">
      <use xlink:href="#DejaVuSans-2a"/>
      <use xlink:href="#DejaVuSans-58" transform="translate(77.484375 0)"/>
      <use xlink:href="#DejaVuSans-4c" transform="translate(140.859375 0)"/>
      <use xlink:href="#DejaVuSans-47" transform="translate(168.640625 0)"/>
      <use xlink:href="#DejaVuSans-48" transform="translate(232.125 0)"/>
      <use xlink:href="#DejaVuSans-a" transform="translate(293.65625 0)"/>
      <use xlink:href="#DejaVuSans-56" transform="translate(321.140625 0)"/>
      <use xlink:href="#DejaVuSans-3" transform="translate(373.234375 0)"/>
      <use xlink:href="#DejaVuSans-55" transform="translate(405.015625 0)"/>
      <use xlink:href="#DejaVuSans-44" transform="translate(446.125 0)"/>
      <use xlink:href="#DejaVuSans-57" transform="translate(507.40625 0)"/>
      <use xlink:href="#DejaVuSans-4c" transform="translate(546.609375 0)"/>
      <use xlink:href="#DejaVuSans-52" transform="translate(574.390625 0)"/>
      <use xlink:href="#DejaVuSans-3" transform="translate(635.578125 0)"/>
      <use xlink:href="#DejaVuSans-52" transform="translate(667.359375 0)"/>
      <use xlink:href="#DejaVuSans-49" transform="translate(728.546875 0)"/>
      <use xlink:href="#DejaVuSans-3" transform="translate(763.75 0)"/>
      <use xlink:href="#DejaVuSans-51" transform="translate(795.53125 0)"/>
      <use xlink:href="#DejaVuSans-52" transform="translate(858.90625 0)"/>
      <use xlink:href="#DejaVuSans-55" transform="translate(920.09375 0)"/>
      <use xlink:href="#DejaVuSans-50" transform="translate(959.453125 0)"/>
      <use xlink:href="#DejaVuSans-44" transform="translate(1056.859375 0)"/>
      <use xlink:href="#DejaVuSans-4f" transform="translate(1118.140625 0)"/>
      <use xlink:href="#DejaVuSans-3" transform="translate(1145.921875 0)"/>
      <use xlink:href="#DejaVuSans-49" transform="translate(1177.703125 0)"/>
      <use xlink:href="#DejaVuSans-52" transform="translate(1212.90625 0)"/>
      <use xlink:href="#DejaVuSans-55" transform="translate(1274.09375 0)"/>
      <use xlink:href="#DejaVuSans-46" transform="translate(1313 0)"/>
      <use xlink:href="#DejaVuSans-48" transform="translate(1367.984375 0)"/>
      <use xlink:href="#DejaVuSans-3" transform="translate(1429.515625 0)"/>
      <use xlink:href="#DejaVuSans-57" transform="translate(1461.296875 0)"/>
      <use xlink:href="#DejaVuSans-52" transform="translate(1500.5 0)"/>
      <use xlink:href="#DejaVuSans-3" transform="translate(1561.6875 0)"/>
      <use xlink:href="#DejaVuSans-47" transform="translate(1593.46875 0)"/>
      <use xlink:href="#DejaVuSans-55" transform="translate(1656.953125 0)"/>
      <use xlink:href="#DejaVuSans-44" transform="translate(1698.0625 0)"/>
      <use xlink:href="#DejaVuSans-4a" transform="translate(1759.34375 0)"/>
     </g>
    </g>
   </g>
   <g id="matplotlib.axis_4">
    <g id="ytick_5">
     <g id="line2d_34">
      <path d="M 282.383834 196.554415 
L 486.59976 196.554415 
" clip-path="url(#p6687addea1)" style="fill: none; stroke: #e1e0d9; stroke-width: 0.8; stroke-linecap: round"/>
     </g>
     <g id="line2d_35"/>
     <g id="text_18">
      <!-- 1 GW -->
      <g style="fill: #52514e" transform="translate(251.707271 200.353243) scale(0.1 -0.1)">
       <defs>
        <path id="DejaVuSans-3a" d="M 213 4666 
L 850 4666 
L 1831 722 
L 2809 4666 
L 3519 4666 
L 4500 722 
L 5478 4666 
L 6119 4666 
L 4947 0 
L 4153 0 
L 3169 4050 
L 2175 0 
L 1381 0 
L 213 4666 
z
" transform="scale(0.015625)"/>
       </defs>
       <use xlink:href="#DejaVuSans-14"/>
       <use xlink:href="#DejaVuSans-3" transform="translate(63.625 0)"/>
       <use xlink:href="#DejaVuSans-2a" transform="translate(95.40625 0)"/>
       <use xlink:href="#DejaVuSans-3a" transform="translate(172.890625 0)"/>
      </g>
     </g>
    </g>
    <g id="ytick_6">
     <g id="line2d_36">
      <path d="M 282.383834 163.767882 
L 486.59976 163.767882 
" clip-path="url(#p6687addea1)" style="fill: none; stroke: #e1e0d9; stroke-width: 0.8; stroke-linecap: round"/>
     </g>
     <g id="line2d_37"/>
     <g id="text_19">
      <!-- 10 GW -->
      <g style="fill: #52514e" transform="translate(245.344771 167.56671) scale(0.1 -0.1)">
       <use xlink:href="#DejaVuSans-14"/>
       <use xlink:href="#DejaVuSans-13" transform="translate(63.625 0)"/>
       <use xlink:href="#DejaVuSans-3" transform="translate(127.25 0)"/>
       <use xlink:href="#DejaVuSans-2a" transform="translate(159.03125 0)"/>
       <use xlink:href="#DejaVuSans-3a" transform="translate(236.515625 0)"/>
      </g>
     </g>
    </g>
    <g id="ytick_7">
     <g id="line2d_38">
      <path d="M 282.383834 130.981349 
L 486.59976 130.981349 
" clip-path="url(#p6687addea1)" style="fill: none; stroke: #e1e0d9; stroke-width: 0.8; stroke-linecap: round"/>
     </g>
     <g id="line2d_39"/>
     <g id="text_20">
      <!-- 100 GW -->
      <g style="fill: #52514e" transform="translate(238.982271 134.780177) scale(0.1 -0.1)">
       <use xlink:href="#DejaVuSans-14"/>
       <use xlink:href="#DejaVuSans-13" transform="translate(63.625 0)"/>
       <use xlink:href="#DejaVuSans-13" transform="translate(127.25 0)"/>
       <use xlink:href="#DejaVuSans-3" transform="translate(190.875 0)"/>
       <use xlink:href="#DejaVuSans-2a" transform="translate(222.65625 0)"/>
       <use xlink:href="#DejaVuSans-3a" transform="translate(300.140625 0)"/>
      </g>
     </g>
    </g>
    <g id="ytick_8">
     <g id="line2d_40">
      <path d="M 282.383834 98.194816 
L 486.59976 98.194816 
" clip-path="url(#p6687addea1)" style="fill: none; stroke: #e1e0d9; stroke-width: 0.8; stroke-linecap: round"/>
     </g>
     <g id="line2d_41"/>
     <g id="text_21">
      <!-- 1 TW -->
      <g style="fill: #52514e" transform="translate(253.347896 101.993645) scale(0.1 -0.1)">
       <defs>
        <path id="DejaVuSans-37" d="M -19 4666 
L 3928 4666 
L 3928 4134 
L 2272 4134 
L 2272 0 
L 1638 0 
L 1638 4134 
L -19 4134 
L -19 4666 
z
" transform="scale(0.015625)"/>
       </defs>
       <use xlink:href="#DejaVuSans-14"/>
       <use xlink:href="#DejaVuSans-3" transform="translate(63.625 0)"/>
       <use xlink:href="#DejaVuSans-37" transform="translate(95.40625 0)"/>
       <use xlink:href="#DejaVuSans-3a" transform="translate(156.484375 0)"/>
      </g>
     </g>
    </g>
    <g id="ytick_9">
     <g id="line2d_42">
      <path d="M 282.383834 65.408284 
L 486.59976 65.408284 
" clip-path="url(#p6687addea1)" style="fill: none; stroke: #e1e0d9; stroke-width: 0.8; stroke-linecap: round"/>
     </g>
     <g id="line2d_43"/>
     <g id="text_22">
      <!-- 10 TW -->
      <g style="fill: #52514e" transform="translate(246.985396 69.207112) scale(0.1 -0.1)">
       <use xlink:href="#DejaVuSans-14"/>
       <use xlink:href="#DejaVuSans-13" transform="translate(63.625 0)"/>
       <use xlink:href="#DejaVuSans-3" transform="translate(127.25 0)"/>
       <use xlink:href="#DejaVuSans-37" transform="translate(159.03125 0)"/>
       <use xlink:href="#DejaVuSans-3a" transform="translate(220.109375 0)"/>
      </g>
     </g>
    </g>
    <g id="ytick_10">
     <g id="line2d_44">
      <path d="M 282.383834 32.621751 
L 486.59976 32.621751 
" clip-path="url(#p6687addea1)" style="fill: none; stroke: #e1e0d9; stroke-width: 0.8; stroke-linecap: round"/>
     </g>
     <g id="line2d_45"/>
     <g id="text_23">
      <!-- 100 TW -->
      <g style="fill: #52514e" transform="translate(240.622896 36.420579) scale(0.1 -0.1)">
       <use xlink:href="#DejaVuSans-14"/>
       <use xlink:href="#DejaVuSans-13" transform="translate(63.625 0)"/>
       <use xlink:href="#DejaVuSans-13" transform="translate(127.25 0)"/>
       <use xlink:href="#DejaVuSans-3" transform="translate(190.875 0)"/>
       <use xlink:href="#DejaVuSans-37" transform="translate(222.65625 0)"/>
       <use xlink:href="#DejaVuSans-3a" transform="translate(283.734375 0)"/>
      </g>
     </g>
    </g>
   </g>
   <g id="line2d_46">
    <path d="M 291.666376 75.868587 
L 293.987011 77.507914 
L 296.307647 79.147241 
L 298.628282 80.786567 
L 300.948918 82.425894 
L 303.269553 84.065221 
L 305.590189 85.704547 
L 307.910825 87.343874 
L 310.23146 88.9832 
L 312.552096 90.622527 
L 314.872731 92.261854 
L 317.193367 93.90118 
L 319.514002 95.540507 
L 321.834638 97.179834 
L 324.155273 98.81916 
L 326.475909 100.458487 
L 328.796544 102.097814 
L 331.11718 103.73714 
L 333.437815 105.376467 
L 335.758451 107.015793 
L 338.079086 108.65512 
L 340.399722 110.294447 
L 342.720357 111.933773 
L 345.040993 113.5731 
L 347.361628 115.212427 
L 349.682264 116.851753 
L 352.0029 118.49108 
L 354.323535 120.130407 
L 356.644171 121.769733 
L 358.964806 123.40906 
L 361.285442 125.048386 
L 363.606077 126.687713 
L 365.926713 128.32704 
L 368.247348 129.966366 
L 370.567984 131.605693 
L 372.888619 133.24502 
L 375.209255 134.884346 
L 377.52989 136.523673 
L 379.850526 138.163 
L 382.171161 139.802326 
L 384.491797 141.441653 
L 386.812432 143.080979 
L 389.133068 144.720306 
L 391.453703 146.359633 
L 393.774339 147.998959 
L 396.094975 149.638286 
L 398.41561 151.277613 
L 400.736246 152.916939 
L 403.056881 154.556266 
L 405.377517 156.195593 
L 407.698152 157.834919 
L 410.018788 159.474246 
L 412.339423 161.113572 
L 414.660059 162.752899 
L 416.980694 164.392226 
L 419.30133 166.031552 
L 421.621965 167.670879 
L 423.942601 169.310206 
L 426.263236 170.949532 
L 428.583872 172.588859 
L 430.904507 174.228186 
L 433.225143 175.867512 
L 435.545778 177.506839 
L 437.866414 179.146165 
L 440.187049 180.785492 
L 442.507685 182.424819 
L 444.828321 184.064145 
L 447.148956 185.703472 
L 449.469592 187.342799 
L 451.790227 188.982125 
L 454.110863 190.621452 
L 456.431498 192.260778 
L 458.752134 193.900105 
L 461.072769 195.539432 
L 463.393405 197.178758 
L 465.71404 198.818085 
L 468.034676 200.457412 
L 470.355311 202.096738 
L 472.675947 203.736065 
L 474.996582 205.375392 
L 477.317218 207.014718 
" clip-path="url(#p6687addea1)" style="fill: none; stroke: #2a78d6; stroke-width: 1.8; stroke-linecap: round"/>
   </g>
   <g id="line2d_47">
    <path d="M 291.666376 47.59606 
L 293.987011 49.235387 
L 296.307647 50.874713 
L 298.628282 52.51404 
L 300.948918 54.153366 
L 303.269553 55.792693 
L 305.590189 57.43202 
L 307.910825 59.071346 
L 310.23146 60.710673 
L 312.552096 62.35 
L 314.872731 63.989326 
L 317.193367 65.628653 
L 319.514002 67.26798 
L 321.834638 68.907306 
L 324.155273 70.546633 
L 326.475909 72.185959 
L 328.796544 73.825286 
L 331.11718 75.464613 
L 333.437815 77.103939 
L 335.758451 78.743266 
L 338.079086 80.382593 
L 340.399722 82.021919 
L 342.720357 83.661246 
L 345.040993 85.300573 
L 347.361628 86.939899 
L 349.682264 88.579226 
L 352.0029 90.218552 
L 354.323535 91.857879 
L 356.644171 93.497206 
L 358.964806 95.136532 
L 361.285442 96.775859 
L 363.606077 98.415186 
L 365.926713 100.054512 
L 368.247348 101.693839 
L 370.567984 103.333166 
L 372.888619 104.972492 
L 375.209255 106.611819 
L 377.52989 108.251145 
L 379.850526 109.890472 
L 382.171161 111.529799 
L 384.491797 113.169125 
L 386.812432 114.808452 
L 389.133068 116.447779 
L 391.453703 118.087105 
L 393.774339 119.726432 
L 396.094975 121.365759 
L 398.41561 123.005085 
L 400.736246 124.644412 
L 403.056881 126.283738 
L 405.377517 127.923065 
L 407.698152 129.562392 
L 410.018788 131.201718 
L 412.339423 132.841045 
L 414.660059 134.480372 
L 416.980694 136.119698 
L 419.30133 137.759025 
L 421.621965 139.398351 
L 423.942601 141.037678 
L 426.263236 142.677005 
L 428.583872 144.316331 
L 430.904507 145.955658 
L 433.225143 147.594985 
L 435.545778 149.234311 
L 437.866414 150.873638 
L 440.187049 152.512965 
L 442.507685 154.152291 
L 444.828321 155.791618 
L 447.148956 157.430944 
L 449.469592 159.070271 
L 451.790227 160.709598 
L 454.110863 162.348924 
L 456.431498 163.988251 
L 458.752134 165.627578 
L 461.072769 167.266904 
L 463.393405 168.906231 
L 465.71404 170.545558 
L 468.034676 172.184884 
L 470.355311 173.824211 
L 472.675947 175.463537 
L 474.996582 177.102864 
L 477.317218 178.742191 
" clip-path="url(#p6687addea1)" style="fill: none; stroke: #eb6834; stroke-width: 1.8; stroke-linecap: round"/>
   </g>
   <g id="line2d_48">
    <path d="M 291.666376 16.687668 
L 293.987011 18.326995 
L 296.307647 19.966321 
L 298.628282 21.605648 
L 300.948918 23.244974 
L 303.269553 24.884301 
L 305.590189 26.523628 
L 307.910825 28.162954 
L 310.23146 29.802281 
L 312.552096 31.441608 
L 314.872731 33.080934 
L 317.193367 34.720261 
L 319.514002 36.359588 
L 321.834638 37.998914 
L 324.155273 39.638241 
L 326.475909 41.277567 
L 328.796544 42.916894 
L 331.11718 44.556221 
L 333.437815 46.195547 
L 335.758451 47.834874 
L 338.079086 49.474201 
L 340.399722 51.113527 
L 342.720357 52.752854 
L 345.040993 54.392181 
L 347.361628 56.031507 
L 349.682264 57.670834 
L 352.0029 59.31016 
L 354.323535 60.949487 
L 356.644171 62.588814 
L 358.964806 64.22814 
L 361.285442 65.867467 
L 363.606077 67.506794 
L 365.926713 69.14612 
L 368.247348 70.785447 
L 370.567984 72.424774 
L 372.888619 74.0641 
L 375.209255 75.703427 
L 377.52989 77.342753 
L 379.850526 78.98208 
L 382.171161 80.621407 
L 384.491797 82.260733 
L 386.812432 83.90006 
L 389.133068 85.539387 
L 391.453703 87.178713 
L 393.774339 88.81804 
L 396.094975 90.457367 
L 398.41561 92.096693 
L 400.736246 93.73602 
L 403.056881 95.375346 
L 405.377517 97.014673 
L 407.698152 98.654 
L 410.018788 100.293326 
L 412.339423 101.932653 
L 414.660059 103.57198 
L 416.980694 105.211306 
L 419.30133 106.850633 
L 421.621965 108.489959 
L 423.942601 110.129286 
L 426.263236 111.768613 
L 428.583872 113.407939 
L 430.904507 115.047266 
L 433.225143 116.686593 
L 435.545778 118.325919 
L 437.866414 119.965246 
L 440.187049 121.604573 
L 442.507685 123.243899 
L 444.828321 124.883226 
L 447.148956 126.522552 
L 449.469592 128.161879 
L 451.790227 129.801206 
L 454.110863 131.440532 
L 456.431498 133.079859 
L 458.752134 134.719186 
L 461.072769 136.358512 
L 463.393405 137.997839 
L 465.71404 139.637166 
L 468.034676 141.276492 
L 470.355311 142.915819 
L 472.675947 144.555145 
L 474.996582 146.194472 
L 477.317218 147.833799 
" clip-path="url(#p6687addea1)" style="fill: none; stroke: #1baf7a; stroke-width: 1.8; stroke-linecap: round"/>
   </g>
   <g id="line2d_49">
    <path d="M 291.666376 1.194012 
L 293.987011 2.833339 
L 296.307647 4.472665 
L 298.628282 6.111992 
L 300.948918 7.751319 
L 303.269553 9.390645 
L 305.590189 11.029972 
L 307.910825 12.669299 
L 310.23146 14.308625 
L 312.552096 15.947952 
L 314.872731 17.587278 
L 317.193367 19.226605 
L 319.514002 20.865932 
L 321.834638 22.505258 
L 324.155273 24.144585 
L 326.475909 25.783912 
L 328.796544 27.423238 
L 331.11718 29.062565 
L 333.437815 30.701892 
L 335.758451 32.341218 
L 338.079086 33.980545 
L 340.399722 35.619871 
L 342.720357 37.259198 
L 345.040993 38.898525 
L 347.361628 40.537851 
L 349.682264 42.177178 
L 352.0029 43.816505 
L 354.323535 45.455831 
L 356.644171 47.095158 
L 358.964806 48.734484 
L 361.285442 50.373811 
L 363.606077 52.013138 
L 365.926713 53.652464 
L 368.247348 55.291791 
L 370.567984 56.931118 
L 372.888619 58.570444 
L 375.209255 60.209771 
L 377.52989 61.849098 
L 379.850526 63.488424 
L 382.171161 65.127751 
L 384.491797 66.767077 
L 386.812432 68.406404 
L 389.133068 70.045731 
L 391.453703 71.685057 
L 393.774339 73.324384 
L 396.094975 74.963711 
L 398.41561 76.603037 
L 400.736246 78.242364 
L 403.056881 79.881691 
L 405.377517 81.521017 
L 407.698152 83.160344 
L 410.018788 84.79967 
L 412.339423 86.438997 
L 414.660059 88.078324 
L 416.980694 89.71765 
L 419.30133 91.356977 
L 421.621965 92.996304 
L 423.942601 94.63563 
L 426.263236 96.274957 
L 428.583872 97.914284 
L 430.904507 99.55361 
L 433.225143 101.192937 
L 435.545778 102.832263 
L 437.866414 104.47159 
L 440.187049 106.110917 
L 442.507685 107.750243 
L 444.828321 109.38957 
L 447.148956 111.028897 
L 449.469592 112.668223 
L 451.790227 114.30755 
L 454.110863 115.946877 
L 456.431498 117.586203 
L 458.752134 119.22553 
L 461.072769 120.864856 
L 463.393405 122.504183 
L 465.71404 124.14351 
L 468.034676 125.782836 
L 470.355311 127.422163 
L 472.675947 129.06149 
L 474.996582 130.700816 
L 477.317218 132.340143 
" clip-path="url(#p6687addea1)" style="fill: none; stroke: #eda100; stroke-width: 1.8; stroke-linecap: round"/>
   </g>
   <g id="patch_6">
    <path d="M 282.383834 213.697796 
L 282.383834 16.978599 
" style="fill: none; stroke: #c3c2b7; stroke-width: 0.8; stroke-linejoin: miter; stroke-linecap: square"/>
   </g>
   <g id="patch_7">
    <path d="M 282.383834 213.697796 
L 486.59976 213.697796 
" style="fill: none; stroke: #c3c2b7; stroke-width: 0.8; stroke-linejoin: miter; stroke-linecap: square"/>
   </g>
   <g id="text_24">
    <!-- Power to make up guide drag -->
    <g style="fill: #0b0b0b" transform="translate(282.383834 10.978599) scale(0.105 -0.105)">
     <defs>
      <path id="DejaVuSans-Bold-33" d="M 588 4666 
L 2584 4666 
Q 3475 4666 3951 4270 
Q 4428 3875 4428 3144 
Q 4428 2409 3951 2014 
Q 3475 1619 2584 1619 
L 1791 1619 
L 1791 0 
L 588 0 
L 588 4666 
z
M 1791 3794 
L 1791 2491 
L 2456 2491 
Q 2806 2491 2997 2661 
Q 3188 2831 3188 3144 
Q 3188 3456 2997 3625 
Q 2806 3794 2456 3794 
L 1791 3794 
z
" transform="scale(0.015625)"/>
      <path id="DejaVuSans-Bold-5a" d="M 225 3500 
L 1313 3500 
L 1900 1088 
L 2491 3500 
L 3425 3500 
L 4013 1113 
L 4603 3500 
L 5691 3500 
L 4769 0 
L 3547 0 
L 2956 2406 
L 2369 0 
L 1147 0 
L 225 3500 
z
" transform="scale(0.015625)"/>
      <path id="DejaVuSans-Bold-50" d="M 3781 2919 
Q 3994 3244 4286 3414 
Q 4578 3584 4928 3584 
Q 5531 3584 5847 3212 
Q 6163 2841 6163 2131 
L 6163 0 
L 5038 0 
L 5038 1825 
Q 5041 1866 5042 1909 
Q 5044 1953 5044 2034 
Q 5044 2406 4934 2573 
Q 4825 2741 4581 2741 
Q 4263 2741 4089 2478 
Q 3916 2216 3909 1719 
L 3909 0 
L 2784 0 
L 2784 1825 
Q 2784 2406 2684 2573 
Q 2584 2741 2328 2741 
Q 2006 2741 1831 2477 
Q 1656 2213 1656 1722 
L 1656 0 
L 531 0 
L 531 3500 
L 1656 3500 
L 1656 2988 
Q 1863 3284 2130 3434 
Q 2397 3584 2719 3584 
Q 3081 3584 3359 3409 
Q 3638 3234 3781 2919 
z
" transform="scale(0.015625)"/>
      <path id="DejaVuSans-Bold-4e" d="M 538 4863 
L 1656 4863 
L 1656 2216 
L 2944 3500 
L 4244 3500 
L 2534 1894 
L 4378 0 
L 3022 0 
L 1656 1459 
L 1656 0 
L 538 0 
L 538 4863 
z
" transform="scale(0.015625)"/>
      <path id="DejaVuSans-Bold-4a" d="M 2919 594 
Q 2688 288 2409 144 
Q 2131 0 1766 0 
Q 1125 0 706 504 
Q 288 1009 288 1791 
Q 288 2575 706 3076 
Q 1125 3578 1766 3578 
Q 2131 3578 2409 3434 
Q 2688 3291 2919 2981 
L 2919 3500 
L 4044 3500 
L 4044 353 
Q 4044 -491 3511 -936 
Q 2978 -1381 1966 -1381 
Q 1638 -1381 1331 -1331 
Q 1025 -1281 716 -1178 
L 716 -306 
Q 1009 -475 1290 -558 
Q 1572 -641 1856 -641 
Q 2406 -641 2662 -400 
Q 2919 -159 2919 353 
L 2919 594 
z
M 2181 2772 
Q 1834 2772 1640 2515 
Q 1447 2259 1447 1791 
Q 1447 1309 1634 1061 
Q 1822 813 2181 813 
Q 2531 813 2725 1069 
Q 2919 1325 2919 1791 
Q 2919 2259 2725 2515 
Q 2531 2772 2181 2772 
z
" transform="scale(0.015625)"/>
      <path id="DejaVuSans-Bold-47" d="M 2919 2988 
L 2919 4863 
L 4044 4863 
L 4044 0 
L 2919 0 
L 2919 506 
Q 2688 197 2409 53 
Q 2131 -91 1766 -91 
Q 1119 -91 703 423 
Q 288 938 288 1747 
Q 288 2556 703 3070 
Q 1119 3584 1766 3584 
Q 2128 3584 2408 3439 
Q 2688 3294 2919 2988 
z
M 2181 722 
Q 2541 722 2730 984 
Q 2919 1247 2919 1747 
Q 2919 2247 2730 2509 
Q 2541 2772 2181 2772 
Q 1825 2772 1636 2509 
Q 1447 2247 1447 1747 
Q 1447 1247 1636 984 
Q 1825 722 2181 722 
z
" transform="scale(0.015625)"/>
     </defs>
     <use xlink:href="#DejaVuSans-Bold-33"/>
     <use xlink:href="#DejaVuSans-Bold-52" transform="translate(73.296875 0)"/>
     <use xlink:href="#DejaVuSans-Bold-5a" transform="translate(142 0)"/>
     <use xlink:href="#DejaVuSans-Bold-48" transform="translate(234.390625 0)"/>
     <use xlink:href="#DejaVuSans-Bold-55" transform="translate(302.21875 0)"/>
     <use xlink:href="#DejaVuSans-Bold-3" transform="translate(351.53125 0)"/>
     <use xlink:href="#DejaVuSans-Bold-57" transform="translate(386.34375 0)"/>
     <use xlink:href="#DejaVuSans-Bold-52" transform="translate(434.140625 0)"/>
     <use xlink:href="#DejaVuSans-Bold-3" transform="translate(502.84375 0)"/>
     <use xlink:href="#DejaVuSans-Bold-50" transform="translate(537.65625 0)"/>
     <use xlink:href="#DejaVuSans-Bold-44" transform="translate(641.859375 0)"/>
     <use xlink:href="#DejaVuSans-Bold-4e" transform="translate(709.34375 0)"/>
     <use xlink:href="#DejaVuSans-Bold-48" transform="translate(773.15625 0)"/>
     <use xlink:href="#DejaVuSans-Bold-3" transform="translate(840.984375 0)"/>
     <use xlink:href="#DejaVuSans-Bold-58" transform="translate(875.796875 0)"/>
     <use xlink:href="#DejaVuSans-Bold-53" transform="translate(946.984375 0)"/>
     <use xlink:href="#DejaVuSans-Bold-3" transform="translate(1018.5625 0)"/>
     <use xlink:href="#DejaVuSans-Bold-4a" transform="translate(1053.375 0)"/>
     <use xlink:href="#DejaVuSans-Bold-58" transform="translate(1124.953125 0)"/>
     <use xlink:href="#DejaVuSans-Bold-4c" transform="translate(1196.140625 0)"/>
     <use xlink:href="#DejaVuSans-Bold-47" transform="translate(1230.421875 0)"/>
     <use xlink:href="#DejaVuSans-Bold-48" transform="translate(1302 0)"/>
     <use xlink:href="#DejaVuSans-Bold-3" transform="translate(1369.828125 0)"/>
     <use xlink:href="#DejaVuSans-Bold-47" transform="translate(1404.640625 0)"/>
     <use xlink:href="#DejaVuSans-Bold-55" transform="translate(1476.21875 0)"/>
     <use xlink:href="#DejaVuSans-Bold-44" transform="translate(1525.53125 0)"/>
     <use xlink:href="#DejaVuSans-Bold-4a" transform="translate(1593.015625 0)"/>
    </g>
   </g>
  </g>
  <g id="legend_1">
   <g id="line2d_50">
    <path d="M 58.781953 252.987891 
L 67.781953 252.987891 
L 76.781953 252.987891 
" style="fill: none; stroke: #2a78d6; stroke-width: 1.8; stroke-linecap: round"/>
   </g>
   <g id="text_25">
    <!-- No helix prestress -->
    <g style="fill: #52514e" transform="translate(83.981953 256.137891) scale(0.09 -0.09)">
     <defs>
      <path id="DejaVuSans-31" d="M 628 4666 
L 1478 4666 
L 3547 763 
L 3547 4666 
L 4159 4666 
L 4159 0 
L 3309 0 
L 1241 3903 
L 1241 0 
L 628 0 
L 628 4666 
z
" transform="scale(0.015625)"/>
      <path id="DejaVuSans-4b" d="M 3513 2113 
L 3513 0 
L 2938 0 
L 2938 2094 
Q 2938 2591 2744 2837 
Q 2550 3084 2163 3084 
Q 1697 3084 1428 2787 
Q 1159 2491 1159 1978 
L 1159 0 
L 581 0 
L 581 4863 
L 1159 4863 
L 1159 2956 
Q 1366 3272 1645 3428 
Q 1925 3584 2291 3584 
Q 2894 3584 3203 3211 
Q 3513 2838 3513 2113 
z
" transform="scale(0.015625)"/>
      <path id="DejaVuSans-5b" d="M 3513 3500 
L 2247 1797 
L 3578 0 
L 2900 0 
L 1881 1375 
L 863 0 
L 184 0 
L 1544 1831 
L 300 3500 
L 978 3500 
L 1906 2253 
L 2834 3500 
L 3513 3500 
z
" transform="scale(0.015625)"/>
      <path id="DejaVuSans-53" d="M 1159 525 
L 1159 -1331 
L 581 -1331 
L 581 3500 
L 1159 3500 
L 1159 2969 
Q 1341 3281 1617 3432 
Q 1894 3584 2278 3584 
Q 2916 3584 3314 3078 
Q 3713 2572 3713 1747 
Q 3713 922 3314 415 
Q 2916 -91 2278 -91 
Q 1894 -91 1617 61 
Q 1341 213 1159 525 
z
M 3116 1747 
Q 3116 2381 2855 2742 
Q 2594 3103 2138 3103 
Q 1681 3103 1420 2742 
Q 1159 2381 1159 1747 
Q 1159 1113 1420 752 
Q 1681 391 2138 391 
Q 2594 391 2855 752 
Q 3116 1113 3116 1747 
z
" transform="scale(0.015625)"/>
     </defs>
     <use xlink:href="#DejaVuSans-31"/>
     <use xlink:href="#DejaVuSans-52" transform="translate(74.8125 0)"/>
     <use xlink:href="#DejaVuSans-3" transform="translate(136 0)"/>
     <use xlink:href="#DejaVuSans-4b" transform="translate(167.78125 0)"/>
     <use xlink:href="#DejaVuSans-48" transform="translate(231.15625 0)"/>
     <use xlink:href="#DejaVuSans-4f" transform="translate(292.6875 0)"/>
     <use xlink:href="#DejaVuSans-4c" transform="translate(320.46875 0)"/>
     <use xlink:href="#DejaVuSans-5b" transform="translate(348.25 0)"/>
     <use xlink:href="#DejaVuSans-3" transform="translate(407.4375 0)"/>
     <use xlink:href="#DejaVuSans-53" transform="translate(439.21875 0)"/>
     <use xlink:href="#DejaVuSans-55" transform="translate(502.703125 0)"/>
     <use xlink:href="#DejaVuSans-48" transform="translate(541.609375 0)"/>
     <use xlink:href="#DejaVuSans-56" transform="translate(603.140625 0)"/>
     <use xlink:href="#DejaVuSans-57" transform="translate(655.234375 0)"/>
     <use xlink:href="#DejaVuSans-55" transform="translate(694.4375 0)"/>
     <use xlink:href="#DejaVuSans-48" transform="translate(733.34375 0)"/>
     <use xlink:href="#DejaVuSans-56" transform="translate(794.875 0)"/>
     <use xlink:href="#DejaVuSans-56" transform="translate(846.96875 0)"/>
    </g>
   </g>
   <g id="line2d_51">
    <path d="M 182.897578 252.987891 
L 191.897578 252.987891 
L 200.897578 252.987891 
" style="fill: none; stroke: #eb6834; stroke-width: 1.8; stroke-linecap: round"/>
   </g>
   <g id="text_26">
    <!-- Γ = 1 -->
    <g style="fill: #52514e" transform="translate(208.097578 256.137891) scale(0.09 -0.09)">
     <defs>
      <path id="DejaVuSans-328" d="M 628 0 
L 628 4666 
L 3531 4666 
L 3531 4134 
L 1259 4134 
L 1259 0 
L 628 0 
z
" transform="scale(0.015625)"/>
      <path id="DejaVuSans-20" d="M 678 2906 
L 4684 2906 
L 4684 2381 
L 678 2381 
L 678 2906 
z
M 678 1631 
L 4684 1631 
L 4684 1100 
L 678 1100 
L 678 1631 
z
" transform="scale(0.015625)"/>
     </defs>
     <use xlink:href="#DejaVuSans-328"/>
     <use xlink:href="#DejaVuSans-3" transform="translate(55.71875 0)"/>
     <use xlink:href="#DejaVuSans-20" transform="translate(87.5 0)"/>
     <use xlink:href="#DejaVuSans-3" transform="translate(171.296875 0)"/>
     <use xlink:href="#DejaVuSans-14" transform="translate(203.078125 0)"/>
    </g>
   </g>
   <g id="line2d_52">
    <path d="M 250.100859 252.987891 
L 259.100859 252.987891 
L 268.100859 252.987891 
" style="fill: none; stroke: #1baf7a; stroke-width: 1.8; stroke-linecap: round"/>
   </g>
   <g id="text_27">
    <!-- Γ = 10 (reference) -->
    <g style="fill: #52514e" transform="translate(275.300859 256.137891) scale(0.09 -0.09)">
     <defs>
      <path id="DejaVuSans-b" d="M 1984 4856 
Q 1566 4138 1362 3434 
Q 1159 2731 1159 2009 
Q 1159 1288 1364 580 
Q 1569 -128 1984 -844 
L 1484 -844 
Q 1016 -109 783 600 
Q 550 1309 550 2009 
Q 550 2706 781 3412 
Q 1013 4119 1484 4856 
L 1984 4856 
z
" transform="scale(0.015625)"/>
      <path id="DejaVuSans-c" d="M 513 4856 
L 1013 4856 
Q 1481 4119 1714 3412 
Q 1947 2706 1947 2009 
Q 1947 1309 1714 600 
Q 1481 -109 1013 -844 
L 513 -844 
Q 928 -128 1133 580 
Q 1338 1288 1338 2009 
Q 1338 2731 1133 3434 
Q 928 4138 513 4856 
z
" transform="scale(0.015625)"/>
     </defs>
     <use xlink:href="#DejaVuSans-328"/>
     <use xlink:href="#DejaVuSans-3" transform="translate(55.71875 0)"/>
     <use xlink:href="#DejaVuSans-20" transform="translate(87.5 0)"/>
     <use xlink:href="#DejaVuSans-3" transform="translate(171.296875 0)"/>
     <use xlink:href="#DejaVuSans-14" transform="translate(203.078125 0)"/>
     <use xlink:href="#DejaVuSans-13" transform="translate(266.703125 0)"/>
     <use xlink:href="#DejaVuSans-3" transform="translate(330.328125 0)"/>
     <use xlink:href="#DejaVuSans-b" transform="translate(362.109375 0)"/>
     <use xlink:href="#DejaVuSans-55" transform="translate(401.125 0)"/>
     <use xlink:href="#DejaVuSans-48" transform="translate(440.03125 0)"/>
     <use xlink:href="#DejaVuSans-49" transform="translate(501.5625 0)"/>
     <use xlink:href="#DejaVuSans-48" transform="translate(536.765625 0)"/>
     <use xlink:href="#DejaVuSans-55" transform="translate(598.296875 0)"/>
     <use xlink:href="#DejaVuSans-48" transform="translate(637.203125 0)"/>
     <use xlink:href="#DejaVuSans-51" transform="translate(698.734375 0)"/>
     <use xlink:href="#DejaVuSans-46" transform="translate(762.109375 0)"/>
     <use xlink:href="#DejaVuSans-48" transform="translate(817.09375 0)"/>
     <use xlink:href="#DejaVuSans-c" transform="translate(878.625 0)"/>
    </g>
   </g>
   <g id="line2d_53">
    <path d="M 375.888516 252.987891 
L 384.888516 252.987891 
L 393.888516 252.987891 
" style="fill: none; stroke: #eda100; stroke-width: 1.8; stroke-linecap: round"/>
   </g>
   <g id="text_28">
    <!-- Γ = 30 -->
    <g style="fill: #52514e" transform="translate(401.088516 256.137891) scale(0.09 -0.09)">
     <defs>
      <path id="DejaVuSans-16" d="M 2597 2516 
Q 3050 2419 3304 2112 
Q 3559 1806 3559 1356 
Q 3559 666 3084 287 
Q 2609 -91 1734 -91 
Q 1441 -91 1130 -33 
Q 819 25 488 141 
L 488 750 
Q 750 597 1062 519 
Q 1375 441 1716 441 
Q 2309 441 2620 675 
Q 2931 909 2931 1356 
Q 2931 1769 2642 2001 
Q 2353 2234 1838 2234 
L 1294 2234 
L 1294 2753 
L 1863 2753 
Q 2328 2753 2575 2939 
Q 2822 3125 2822 3475 
Q 2822 3834 2567 4026 
Q 2313 4219 1838 4219 
Q 1578 4219 1281 4162 
Q 984 4106 628 3988 
L 628 4550 
Q 988 4650 1302 4700 
Q 1616 4750 1894 4750 
Q 2613 4750 3031 4423 
Q 3450 4097 3450 3541 
Q 3450 3153 3228 2886 
Q 3006 2619 2597 2516 
z
" transform="scale(0.015625)"/>
     </defs>
     <use xlink:href="#DejaVuSans-328"/>
     <use xlink:href="#DejaVuSans-3" transform="translate(55.71875 0)"/>
     <use xlink:href="#DejaVuSans-20" transform="translate(87.5 0)"/>
     <use xlink:href="#DejaVuSans-3" transform="translate(171.296875 0)"/>
     <use xlink:href="#DejaVuSans-16" transform="translate(203.078125 0)"/>
     <use xlink:href="#DejaVuSans-13" transform="translate(266.703125 0)"/>
    </g>
   </g>
  </g>
 </g>
 <defs>
  <clipPath id="p9cd13b96df">
   <rect x="28.765865" y="16.978599" width="204.215926" height="196.719196"/>
  </clipPath>
  <clipPath id="p6687addea1">
   <rect x="282.383834" y="16.978599" width="204.215926" height="196.719196"/>
  </clipPath>
 </defs>
</svg>
